Coordinates
version=1
nRows=14
nColumns=36
inDegrees=yes

Units are S.I. units (second, meters, Newtons, ...)
If the header above contains a line with 'inDegrees', this indicates whether rotational values are in degrees (yes) or radians (no).

endheader
time	pelvis_tilt	pelvis_list	pelvis_rotation	pelvis_tx	pelvis_ty	pelvis_tz	hip_flexion_r	hip_adduction_r	hip_rotation_r	knee_angle_r	knee_angle_r_beta	ankle_angle_r	subtalar_angle_r	mtp_angle_r	hip_flexion_l	hip_adduction_l	hip_rotation_l	knee_angle_l	knee_angle_l_beta	ankle_angle_l	subtalar_angle_l	mtp_angle_l	lumbar_extension	lumbar_bending	lumbar_rotation	arm_flex_r	arm_add_r	arm_rot_r	elbow_flex_r	pro_sup_r	arm_flex_l	arm_add_l	arm_rot_l	elbow_flex_l	pro_sup_l
      0.32000000	     -2.29873145	     -4.15835529	      1.73099030	      0.37629421	      0.96977998	     -0.21575468	     -5.75386627	      8.26042676	     -0.91697394	      2.02624815	      0.03536470	      8.70313302	      0.28253871	     -6.42969867	     30.59514949	     -5.42904442	     -5.67707996	     35.38303042	      0.61755038	      1.69021993	     -4.11187901	     -6.42969867	     -5.48166674	     -1.01151771	      9.53278915	      9.55383005	     -9.61225795	      5.98882618	     67.00781008	    109.25673815	     -6.25046566	    -10.51950910	     -2.20216308	     49.87397458	    105.40422190
      0.33000000	     -2.54515597	     -4.42837956	      1.71977658	      0.38814653	      0.96766501	     -0.21555650	     -6.35309474	      8.66072819	     -0.88562694	      1.88865209	      0.03296320	      9.03623400	      0.16326688	     -6.43852491	     30.97935530	     -5.57626774	     -5.48837512	     31.64171731	      0.55225215	      1.82447597	     -3.30996292	     -6.43852491	     -5.01946905	     -0.89665444	      9.80710793	      9.81346189	     -9.97016349	      6.15241380	     67.38183949	    109.17173985	     -6.72248339	    -10.44777075	     -2.27665332	     49.98024251	    105.33139628
      0.34000000	     -2.32922807	     -4.21261576	      1.67367781	      0.40019145	      0.96628926	     -0.21533239	     -7.55408637	      8.53128242	     -0.55726736	      1.65697351	      0.02891964	      9.55991865	     -0.18486864	     -6.46442107	     30.44810091	     -5.28482344	     -5.57254815	     27.34808557	      0.47731414	      1.76339366	     -1.81502201	     -6.46442107	     -5.19046664	     -1.43705310	     10.03728490	     10.29629548	    -10.32110391	      6.52719226	     67.67682730	    109.15506602	     -7.01280070	    -10.48664997	     -2.57617145	     50.21171842	    105.31387557
      0.35000000	     -2.35429155	     -4.22715617	      1.68693147	      0.41226946	      0.96428916	     -0.21530898	     -8.40085084	      8.64161831	     -0.43541487	      1.57261633	      0.02744733	     10.03777297	     -0.52302116	     -6.48500111	     30.24988432	     -5.20564755	     -5.47915324	     23.27195762	      0.40617228	      1.88703547	     -0.55037721	     -6.48500111	     -5.04793294	     -1.67495174	     10.19635828	     10.61838516	    -10.69207559	      6.75652024	     67.98168386	    109.13388007	     -7.35901593	    -10.48178015	     -2.80642131	     50.30851873	    105.27712687
      0.36000000	     -2.57977214	     -4.29638351	      1.72001682	      0.42443185	      0.96186042	     -0.21539744	     -8.96514853	      8.79417127	     -0.29175174	      1.63311959	      0.02850331	     10.40109034	     -0.73623981	     -6.49620169	     30.23752578	     -5.16091207	     -5.23416181	     19.33949017	      0.33753778	      2.16899519	      0.63008414	     -6.49620169	     -4.59286513	     -1.84883874	     10.36306448	     10.76701616	    -11.06683334	      6.95164108	     68.30941873	    109.10186916	     -7.69552774	    -10.46700415	     -2.97462804	     50.35802864	    105.21848318
      0.37000000	     -2.37357374	     -4.24278623	      1.74474308	      0.43676594	      0.96000092	     -0.21549619	    -10.03445680	      8.81324930	     -0.15660835	      1.64736291	      0.02875191	     10.92616661	     -1.15158339	     -6.51666699	     29.66420208	     -5.12491347	     -5.53458869	     15.55742706	      0.27152833	      2.35701149	      2.29187502	     -6.51666699	     -4.71863348	     -2.18086011	     10.43890443	     11.10923900	    -11.40173072	      7.13089760	     68.53647402	    109.13779807	     -7.93262027	    -10.47140135	     -3.27571198	     50.40715498	    105.19049206
      0.38000000	     -2.38285387	     -4.22560392	      1.74314876	      0.44915346	      0.95779158	     -0.21565065	    -10.77869855	      8.83872700	      0.03071361	      1.83999466	      0.03211397	     11.29109153	     -1.47574944	     -6.53586799	     29.37511446	     -5.13194687	     -5.76568350	     12.23833132	      0.21359918	      2.74326824	      3.94015410	     -6.53586799	     -4.55357164	     -2.48841473	     10.52596796	     11.30531483	    -11.74454849	      7.31085697	     68.73544567	    109.19119519	     -8.18590796	    -10.46533558	     -3.58414476	     50.40535304	    105.16227880
      0.39000000	     -2.35905357	     -4.19572958	      1.63417923	      0.46170313	      0.95563271	     -0.21570737	    -11.50123866	      8.81267316	      0.30004459	      2.14467946	      0.03743172	     11.52054017	     -1.88928086	     -6.58689489	     29.13236418	     -5.26475042	     -6.58764395	      9.58367076	      0.16726661	      3.52757987	      6.32219190	     -6.58689489	     -4.40799268	     -2.82232590	     10.58262684	     11.56221679	    -12.05610487	      7.53318059	     68.81204785	    109.48567767	     -8.51299205	    -10.43417655	     -4.09090019	     50.43973552	    105.27319913
      0.40000000	     -2.44563396	     -4.16806710	      1.53535246	      0.47422297	      0.95337441	     -0.21592257	    -11.95876708	      8.75212735	      0.43400366	      2.72380615	      0.04753939	     11.79850637	     -2.13995681	     -6.59760747	     29.01934321	     -5.30185287	     -6.56422483	      7.44113627	      0.12987233	      3.89270001	      7.18223205	     -6.59760747	     -4.12752075	     -3.16086596	     10.71218561	     11.64413740	    -12.37909242	      7.60622913	     68.93673571	    109.48223603	     -8.65309611	    -10.44166153	     -4.30187232	     50.24999533	    105.21616389
      0.41000000	     -2.42498907	     -4.12508246	      1.38053193	      0.48686813	      0.95136212	     -0.21612136	    -12.45505573	      8.64268391	      0.57872433	      3.45611811	      0.06032064	     11.99943788	     -2.38388551	     -6.60494796	     28.86071971	     -5.39712353	     -6.65076069	      6.03850360	      0.10539177	      4.28147771	      7.80525653	     -6.60494796	     -3.97031953	     -3.52481852	     10.81913831	     11.74111026	    -12.63480474	      7.63178279	     69.01576031	    109.54089323	     -8.76349075	    -10.44367161	     -4.54197709	     50.01813233	    105.20106582
      0.42000000	     -2.34519479	     -4.02306707	      1.17670056	      0.49964658	      0.94958168	     -0.21634059	    -12.91621921	      8.42760248	      0.71278643	      4.38442528	      0.07652266	     12.21340690	     -2.62265142	     -6.61300614	     28.67639043	     -5.47920619	     -6.68793008	      5.35894895	      0.09353130	      4.71650725	      8.21259348	     -6.61300614	     -3.90358543	     -3.98080675	     10.94665980	     11.81851485	    -12.88408350	      7.62699882	     69.02267360	    109.59482500	     -8.79909743	    -10.42698015	     -4.86603262	     49.72061486	    105.17334654
      0.43000000	     -2.24788091	     -3.89507412	      0.94286534	      0.51258960	      0.94794135	     -0.21665187	    -13.29658036	      8.15045250	      0.77581445	      5.51457996	      0.09624758	     12.42458593	     -2.78312146	     -6.62376999	     28.53157152	     -5.55817193	     -6.65703675	      5.42806089	      0.09473753	      5.22808641	      8.23774381	     -6.62376999	     -3.81908679	     -4.45971139	     11.04246094	     11.82025768	    -13.07431790	      7.58334897	     68.98820666	    109.65392756	     -8.79777574	    -10.37187613	     -5.28150571	     49.34888976	    105.13928433
      0.44000000	     -2.16399831	     -3.74253260	      0.70668396	      0.52567868	      0.94640718	     -0.21707834	    -13.53712018	      7.81318491	      0.74336822	      6.87796552	      0.12004314	     12.56697613	     -2.79237755	     -6.63704832	     28.43559467	     -5.59343609	     -6.42538050	      6.10841078	      0.10661188	      5.71405492	      7.75730963	     -6.63704832	     -3.72546127	     -4.98416390	     11.10523757	     11.75892622	    -13.21861846	      7.46955011	     68.92856770	    109.71034066	     -8.77270543	    -10.30310642	     -5.74566588	     48.92304327	    105.10302865
      0.45000000	     -1.95869166	     -3.52770145	      0.48254297	      0.53895126	      0.94522524	     -0.21759120	    -13.88509042	      7.39640042	      0.86360972	      8.27675838	      0.14445669	     12.39440095	     -2.79174271	     -6.64225460	     28.15614928	     -5.54146011	     -6.09750175	      7.13340404	      0.12450139	      5.89309486	      7.28035509	     -6.64225460	     -3.78953477	     -5.60499082	     11.09767262	     11.69394140	    -13.30820437	      7.33959865	     68.83732557	    109.71897544	     -8.73402829	    -10.32733382	     -6.02022091	     48.58912448	    105.06176641
